<svg id="visual" viewBox="0 0 900 450" width="100%" height="100%" xmlns="http://www.w3.org/2000/svg" xmlns:xlink="http://www.w3.org/1999/xlink" version="1.1"><rect x="0" y="0" width="900" height="600" fill="#001220"></rect><defs><linearGradient id="grad1_0" x1="33.3%" y1="0%" x2="100%" y2="100%"><stop offset="20%" stop-color="#fbae3c" stop-opacity="1"></stop><stop offset="80%" stop-color="#fbae3c" stop-opacity="1"></stop></linearGradient></defs><defs><linearGradient id="grad1_1" x1="33.3%" y1="0%" x2="100%" y2="100%"><stop offset="20%" stop-color="#fbae3c" stop-opacity="1"></stop><stop offset="80%" stop-color="#96446e" stop-opacity="1"></stop></linearGradient></defs><defs><linearGradient id="grad1_2" x1="33.3%" y1="0%" x2="100%" y2="100%"><stop offset="20%" stop-color="#001220" stop-opacity="1"></stop><stop offset="80%" stop-color="#96446e" stop-opacity="1"></stop></linearGradient></defs><defs><linearGradient id="grad2_0" x1="0%" y1="0%" x2="66.7%" y2="100%"><stop offset="20%" stop-color="#fbae3c" stop-opacity="1"></stop><stop offset="80%" stop-color="#fbae3c" stop-opacity="1"></stop></linearGradient></defs><defs><linearGradient id="grad2_1" x1="0%" y1="0%" x2="66.7%" y2="100%"><stop offset="20%" stop-color="#96446e" stop-opacity="1"></stop><stop offset="80%" stop-color="#fbae3c" stop-opacity="1"></stop></linearGradient></defs><defs><linearGradient id="grad2_2" x1="0%" y1="0%" x2="66.7%" y2="100%"><stop offset="20%" stop-color="#96446e" stop-opacity="1"></stop><stop offset="80%" stop-color="#001220" stop-opacity="1"></stop></linearGradient></defs><g transform="translate(900, 0)"><path d="M0 459.7C-66.4 460.5 -132.7 461.2 -175.9 424.7C-219.1 388.2 -239.1 314.4 -263.8 263.8C-288.4 213.1 -317.6 185.5 -351.1 145.4C-384.5 105.3 -422.1 52.7 -459.7 0L0 0Z" fill="#3d3056"></path><path d="M0 306.5C-44.2 307 -88.5 307.5 -117.3 283.1C-146.1 258.8 -159.4 209.6 -175.8 175.8C-192.3 142.1 -211.8 123.7 -234 96.9C-256.3 70.2 -281.4 35.1 -306.5 0L0 0Z" fill="#e1685e"></path><path d="M0 153.2C-22.1 153.5 -44.2 153.7 -58.6 141.6C-73 129.4 -79.7 104.8 -87.9 87.9C-96.1 71 -105.9 61.8 -117 48.5C-128.2 35.1 -140.7 17.6 -153.2 0L0 0Z" fill="#fbae3c"></path></g><g transform="translate(0, 600)"><path d="M0 -459.7C54.2 -430.7 108.5 -401.6 154.6 -373.2C200.7 -344.9 238.7 -317.3 287.1 -287.1C335.5 -256.9 394.2 -224.2 424.7 -175.9C455.2 -127.7 457.5 -63.8 459.7 0L0 0Z" fill="#3d3056"></path><path d="M0 -306.5C36.2 -287.1 72.3 -267.7 103.1 -248.8C133.8 -229.9 159.1 -211.5 191.4 -191.4C223.6 -171.3 262.8 -149.5 283.1 -117.3C303.5 -85.1 305 -42.6 306.5 0L0 0Z" fill="#e1685e"></path><path d="M0 -153.2C18.1 -143.6 36.2 -133.9 51.5 -124.4C66.9 -115 79.6 -105.8 95.7 -95.7C111.8 -85.6 131.4 -74.7 141.6 -58.6C151.7 -42.6 152.5 -21.3 153.2 0L0 0Z" fill="#fbae3c"></path></g></svg>