<svg id="visual" viewBox="0 0 900 450" width="100%" height="100%" xmlns="http://www.w3.org/2000/svg" xmlns:xlink="http://www.w3.org/1999/xlink" version="1.1"><g stroke-width="1" stroke-linejoin="bevel"><path d="M423 298L467 367L516 280Z" fill="#1d4e6b" stroke="#1d4e6b"></path><path d="M600 417L599 281L516 280Z" fill="#1d4e6b" stroke="#1d4e6b"></path><path d="M602 220L467 180L516 280Z" fill="#081a28" stroke="#081a28"></path><path d="M516 280L467 180L423 298Z" fill="#112e42" stroke="#112e42"></path><path d="M467 180L381 209L423 298Z" fill="#1d4e6b" stroke="#1d4e6b"></path><path d="M599 281L602 220L516 280Z" fill="#1d4e6b" stroke="#1d4e6b"></path><path d="M423 298L371 434L467 367Z" fill="#297ea6" stroke="#297ea6"></path><path d="M467 367L600 417L516 280Z" fill="#15384f" stroke="#15384f"></path><path d="M310 366L371 434L423 298Z" fill="#1d4e6b" stroke="#1d4e6b"></path><path d="M381 209L318 277L423 298Z" fill="#205a7a" stroke="#205a7a"></path><path d="M503 508L600 417L467 367Z" fill="#15384f" stroke="#15384f"></path><path d="M599 281L718 277L602 220Z" fill="#297ea6" stroke="#297ea6"></path><path d="M318 277L310 366L423 298Z" fill="#246688" stroke="#246688"></path><path d="M371 434L503 508L467 367Z" fill="#1d4e6b" stroke="#1d4e6b"></path><path d="M421 65L323 186L381 209Z" fill="#112e42" stroke="#112e42"></path><path d="M381 209L323 186L318 277Z" fill="#1d4e6b" stroke="#1d4e6b"></path><path d="M318 277L199 313L310 366Z" fill="#277297" stroke="#277297"></path><path d="M602 220L534 89L467 180Z" fill="#0c2435" stroke="#0c2435"></path><path d="M467 180L421 65L381 209Z" fill="#246688" stroke="#246688"></path><path d="M683 492L699 377L600 417Z" fill="#112e42" stroke="#112e42"></path><path d="M600 417L699 377L599 281Z" fill="#19435d" stroke="#19435d"></path><path d="M602 220L618 78L534 89Z" fill="#19435d" stroke="#19435d"></path><path d="M312 508L394 537L371 434Z" fill="#112e42" stroke="#112e42"></path><path d="M371 434L394 537L503 508Z" fill="#246688" stroke="#246688"></path><path d="M699 377L718 277L599 281Z" fill="#205a7a" stroke="#205a7a"></path><path d="M527 600L623 517L503 508Z" fill="#205a7a" stroke="#205a7a"></path><path d="M503 508L623 517L600 417Z" fill="#0c2435" stroke="#0c2435"></path><path d="M310 366L312 508L371 434Z" fill="#00101c" stroke="#00101c"></path><path d="M534 89L421 65L467 180Z" fill="#15384f" stroke="#15384f"></path><path d="M718 277L706 204L602 220Z" fill="#15384f" stroke="#15384f"></path><path d="M421 65L290 134L323 186Z" fill="#0c2435" stroke="#0c2435"></path><path d="M211 180L199 313L318 277Z" fill="#277297" stroke="#277297"></path><path d="M310 366L223 432L312 508Z" fill="#15384f" stroke="#15384f"></path><path d="M623 517L683 492L600 417Z" fill="#081a28" stroke="#081a28"></path><path d="M699 377L794 302L718 277Z" fill="#00101c" stroke="#00101c"></path><path d="M211 180L318 277L323 186Z" fill="#00101c" stroke="#00101c"></path><path d="M700 118L618 78L602 220Z" fill="#112e42" stroke="#112e42"></path><path d="M534 89L497 0L421 65Z" fill="#19435d" stroke="#19435d"></path><path d="M199 313L223 432L310 366Z" fill="#19435d" stroke="#19435d"></path><path d="M406 600L503 508L394 537Z" fill="#277297" stroke="#277297"></path><path d="M406 600L527 600L503 508Z" fill="#0c2435" stroke="#0c2435"></path><path d="M623 517L667 600L683 492Z" fill="#19435d" stroke="#19435d"></path><path d="M295 600L394 537L312 508Z" fill="#19435d" stroke="#19435d"></path><path d="M295 600L406 600L394 537Z" fill="#277297" stroke="#277297"></path><path d="M290 134L211 180L323 186Z" fill="#19435d" stroke="#19435d"></path><path d="M799 93L700 118L706 204Z" fill="#15384f" stroke="#15384f"></path><path d="M706 204L700 118L602 220Z" fill="#0c2435" stroke="#0c2435"></path><path d="M527 600L601 600L623 517Z" fill="#297ea6" stroke="#297ea6"></path><path d="M613 0L534 89L618 78Z" fill="#205a7a" stroke="#205a7a"></path><path d="M613 0L497 0L534 89Z" fill="#0c2435" stroke="#0c2435"></path><path d="M421 65L329 0L290 134Z" fill="#246688" stroke="#246688"></path><path d="M290 134L187 124L211 180Z" fill="#0c2435" stroke="#0c2435"></path><path d="M497 0L432 0L421 65Z" fill="#277297" stroke="#277297"></path><path d="M779 415L794 302L699 377Z" fill="#205a7a" stroke="#205a7a"></path><path d="M718 277L809 234L706 204Z" fill="#19435d" stroke="#19435d"></path><path d="M797 487L779 415L683 492Z" fill="#112e42" stroke="#112e42"></path><path d="M683 492L779 415L699 377Z" fill="#297ea6" stroke="#297ea6"></path><path d="M161 527L295 600L312 508Z" fill="#15384f" stroke="#15384f"></path><path d="M681 0L613 0L618 78Z" fill="#277297" stroke="#277297"></path><path d="M900 298L809 234L794 302Z" fill="#19435d" stroke="#19435d"></path><path d="M794 302L809 234L718 277Z" fill="#19435d" stroke="#19435d"></path><path d="M700 118L681 0L618 78Z" fill="#297ea6" stroke="#297ea6"></path><path d="M172 0L187 124L290 134Z" fill="#277297" stroke="#277297"></path><path d="M211 180L113 266L199 313Z" fill="#205a7a" stroke="#205a7a"></path><path d="M601 600L667 600L623 517Z" fill="#00101c" stroke="#00101c"></path><path d="M432 0L329 0L421 65Z" fill="#112e42" stroke="#112e42"></path><path d="M69 183L113 266L211 180Z" fill="#112e42" stroke="#112e42"></path><path d="M199 313L92 403L223 432Z" fill="#15384f" stroke="#15384f"></path><path d="M223 432L161 527L312 508Z" fill="#15384f" stroke="#15384f"></path><path d="M667 600L797 487L683 492Z" fill="#19435d" stroke="#19435d"></path><path d="M900 426L900 298L794 302Z" fill="#246688" stroke="#246688"></path><path d="M799 93L681 0L700 118Z" fill="#0c2435" stroke="#0c2435"></path><path d="M92 403L161 527L223 432Z" fill="#19435d" stroke="#19435d"></path><path d="M113 266L92 403L199 313Z" fill="#1d4e6b" stroke="#1d4e6b"></path><path d="M809 234L799 93L706 204Z" fill="#297ea6" stroke="#297ea6"></path><path d="M161 527L173 600L295 600Z" fill="#112e42" stroke="#112e42"></path><path d="M121 600L173 600L161 527Z" fill="#205a7a" stroke="#205a7a"></path><path d="M187 124L69 183L211 180Z" fill="#246688" stroke="#246688"></path><path d="M113 266L0 318L92 403Z" fill="#112e42" stroke="#112e42"></path><path d="M99 89L69 183L187 124Z" fill="#1d4e6b" stroke="#1d4e6b"></path><path d="M900 426L794 302L779 415Z" fill="#1d4e6b" stroke="#1d4e6b"></path><path d="M809 234L900 198L799 93Z" fill="#277297" stroke="#277297"></path><path d="M329 0L172 0L290 134Z" fill="#246688" stroke="#246688"></path><path d="M172 0L99 89L187 124Z" fill="#19435d" stroke="#19435d"></path><path d="M797 487L900 426L779 415Z" fill="#0c2435" stroke="#0c2435"></path><path d="M900 478L900 426L797 487Z" fill="#112e42" stroke="#112e42"></path><path d="M900 298L900 198L809 234Z" fill="#0c2435" stroke="#0c2435"></path><path d="M0 426L69 501L92 403Z" fill="#112e42" stroke="#112e42"></path><path d="M92 403L69 501L161 527Z" fill="#1d4e6b" stroke="#1d4e6b"></path><path d="M667 600L823 600L797 487Z" fill="#297ea6" stroke="#297ea6"></path><path d="M69 501L121 600L161 527Z" fill="#15384f" stroke="#15384f"></path><path d="M900 0L804 0L799 93Z" fill="#00101c" stroke="#00101c"></path><path d="M799 93L804 0L681 0Z" fill="#00101c" stroke="#00101c"></path><path d="M823 600L900 478L797 487Z" fill="#112e42" stroke="#112e42"></path><path d="M172 0L129 0L99 89Z" fill="#246688" stroke="#246688"></path><path d="M900 198L900 116L799 93Z" fill="#205a7a" stroke="#205a7a"></path><path d="M0 228L0 318L113 266Z" fill="#277297" stroke="#277297"></path><path d="M0 228L113 266L69 183Z" fill="#112e42" stroke="#112e42"></path><path d="M0 228L69 183L0 120Z" fill="#00101c" stroke="#00101c"></path><path d="M0 120L69 183L99 89Z" fill="#277297" stroke="#277297"></path><path d="M0 318L0 426L92 403Z" fill="#277297" stroke="#277297"></path><path d="M69 501L0 539L121 600Z" fill="#277297" stroke="#277297"></path><path d="M0 0L0 120L99 89Z" fill="#297ea6" stroke="#297ea6"></path><path d="M823 600L900 600L900 478Z" fill="#205a7a" stroke="#205a7a"></path><path d="M0 426L0 539L69 501Z" fill="#112e42" stroke="#112e42"></path><path d="M900 116L900 0L799 93Z" fill="#00101c" stroke="#00101c"></path><path d="M0 539L0 600L121 600Z" fill="#277297" stroke="#277297"></path><path d="M129 0L0 0L99 89Z" fill="#15384f" stroke="#15384f"></path></g></svg>