<svg id="visual" viewBox="0 0 1450 200" width="1450" height="200" xmlns="http://www.w3.org/2000/svg" xmlns:xlink="http://www.w3.org/1999/xlink" version="1.1"><path d="M0 23L24.2 23.3C48.3 23.7 96.7 24.3 145 24C193.3 23.7 241.7 22.3 290 26C338.3 29.7 386.7 38.3 435 42.3C483.3 46.3 531.7 45.7 580 46C628.3 46.3 676.7 47.7 725 47.7C773.3 47.7 821.7 46.3 870 43.3C918.3 40.3 966.7 35.7 1015 32C1063.3 28.3 1111.7 25.7 1160 26C1208.3 26.3 1256.7 29.7 1305 29C1353.3 28.3 1401.7 23.7 1425.8 21.3L1450 19L1450 0L1425.8 0C1401.7 0 1353.3 0 1305 0C1256.7 0 1208.3 0 1160 0C1111.7 0 1063.3 0 1015 0C966.7 0 918.3 0 870 0C821.7 0 773.3 0 725 0C676.7 0 628.3 0 580 0C531.7 0 483.3 0 435 0C386.7 0 338.3 0 290 0C241.7 0 193.3 0 145 0C96.7 0 48.3 0 24.2 0L0 0Z" fill="#1b151c"></path><path d="M0 97L24.2 90.3C48.3 83.7 96.7 70.3 145 76C193.3 81.7 241.7 106.3 290 118C338.3 129.7 386.7 128.3 435 121.7C483.3 115 531.7 103 580 104C628.3 105 676.7 119 725 123.7C773.3 128.3 821.7 123.7 870 120.3C918.3 117 966.7 115 1015 115.3C1063.3 115.7 1111.7 118.3 1160 115C1208.3 111.7 1256.7 102.3 1305 92.3C1353.3 82.3 1401.7 71.7 1425.8 66.3L1450 61L1450 17L1425.8 19.3C1401.7 21.7 1353.3 26.3 1305 27C1256.7 27.7 1208.3 24.3 1160 24C1111.7 23.7 1063.3 26.3 1015 30C966.7 33.7 918.3 38.3 870 41.3C821.7 44.3 773.3 45.7 725 45.7C676.7 45.7 628.3 44.3 580 44C531.7 43.7 483.3 44.3 435 40.3C386.7 36.3 338.3 27.7 290 24C241.7 20.3 193.3 21.7 145 22C96.7 22.3 48.3 21.7 24.2 21.3L0 21Z" fill="#3e344c"></path><path d="M0 159L24.2 158C48.3 157 96.7 155 145 157.3C193.3 159.7 241.7 166.3 290 169.7C338.3 173 386.7 173 435 169.7C483.3 166.3 531.7 159.7 580 160.3C628.3 161 676.7 169 725 174C773.3 179 821.7 181 870 180C918.3 179 966.7 175 1015 173.3C1063.3 171.7 1111.7 172.3 1160 169C1208.3 165.7 1256.7 158.3 1305 155.3C1353.3 152.3 1401.7 153.7 1425.8 154.3L1450 155L1450 59L1425.8 64.3C1401.7 69.7 1353.3 80.3 1305 90.3C1256.7 100.3 1208.3 109.7 1160 113C1111.7 116.3 1063.3 113.7 1015 113.3C966.7 113 918.3 115 870 118.3C821.7 121.7 773.3 126.3 725 121.7C676.7 117 628.3 103 580 102C531.7 101 483.3 113 435 119.7C386.7 126.3 338.3 127.7 290 116C241.7 104.3 193.3 79.7 145 74C96.7 68.3 48.3 81.7 24.2 88.3L0 95Z" fill="#575986"></path><path d="M0 201L24.2 201C48.3 201 96.7 201 145 201C193.3 201 241.7 201 290 201C338.3 201 386.7 201 435 201C483.3 201 531.7 201 580 201C628.3 201 676.7 201 725 201C773.3 201 821.7 201 870 201C918.3 201 966.7 201 1015 201C1063.3 201 1111.7 201 1160 201C1208.3 201 1256.7 201 1305 201C1353.3 201 1401.7 201 1425.8 201L1450 201L1450 153L1425.8 152.3C1401.7 151.7 1353.3 150.3 1305 153.3C1256.7 156.3 1208.3 163.7 1160 167C1111.7 170.3 1063.3 169.7 1015 171.3C966.7 173 918.3 177 870 178C821.7 179 773.3 177 725 172C676.7 167 628.3 159 580 158.3C531.7 157.7 483.3 164.3 435 167.7C386.7 171 338.3 171 290 167.7C241.7 164.3 193.3 157.7 145 155.3C96.7 153 48.3 155 24.2 156L0 157Z" fill="#6085c5"></path></svg>