<svg width="115" height="111" viewBox="0 0 115 111" fill="none" xmlns="http://www.w3.org/2000/svg">
<g clip-path="url(#clip0_113_2267)">
<path d="M12.6141 73.7956V41.0436C12.6247 37.4484 13.1495 36.413 16.8786 36.4103C18.5243 36.4103 23.0367 36.4103 23.0367 36.4103C37.4653 36.4103 44.1218 43.7297 44.1218 54.842C44.1218 65.3584 36.3286 73.7297 26.2753 73.7956H12.6141ZM101.768 73.7956H66.6311V40.2828C66.6311 37.3798 67.1928 36.413 71.0327 36.413H73.103V35.6715H54.0169V36.413H55.9923C59.8981 36.413 60.4704 37.3578 60.4704 40.2828V109.607C60.4704 109.607 59.8506 109.607 59.6053 109.607C54.4943 109.607 53.5475 106.482 51.3058 101.456C44.3434 85.8555 40.8226 76.3307 22.3589 74.3587L25.8929 74.3724C36.0201 74.4301 50.2535 70.5163 50.2535 54.7157C50.2535 36.7316 30.6954 35.6852 25.6845 35.6687C25.6845 35.6687 10.0533 35.6687 0 35.6687V36.4103C0 36.4103 0.730529 36.4103 1.65622 36.4103C5.81786 36.4075 6.44553 37.215 6.44817 41.0381V105.466C6.44817 108.918 5.57786 109.55 2.00434 109.607H0V110.346H19.0781V109.607H16.9973C13.7139 109.497 12.6115 108.998 12.6115 105.466V74.5372H17.5221C22.9154 74.5372 27.4753 75.6028 30.996 78.58C40.8358 86.9074 41.3896 110.346 57.8568 110.346H73.1003V109.607H71.3386C67.4064 109.607 66.6311 108.701 66.6311 104.955V74.5372H101.762L101.752 105.479C101.741 108.882 100.984 109.607 97.01 109.607C96.0606 109.607 95.2958 109.607 95.2958 109.607V110.346H114.374V109.607C114.374 109.607 113.638 109.607 112.689 109.607C108.891 109.607 107.915 108.893 107.913 105.479V40.3021C107.913 37.1381 108.764 36.413 112.689 36.4103C113.638 36.4103 114.374 36.4103 114.374 36.4103V35.6687H95.2958V36.4103C95.2958 36.4103 96.0606 36.4103 97.01 36.4103C100.982 36.4103 101.741 37.0996 101.744 40.5355L101.76 73.7929L101.768 73.7956Z" fill="black"/>
<path d="M12.4876 3.43582L11.9706 0.472343H8.52108L4.74712 12.8261C4.55196 13.4331 4.40163 14.1746 4.40163 14.4877C4.40163 15.048 4.70228 15.4298 6.4508 15.4545L6.38751 15.6797H0L0.0421966 15.4545C1.09975 15.4545 2.1995 15.3199 2.56608 14.084L6.70662 0.472343H3.23595L0.775362 3.3699H0.580203L1.50853 0.178467H13.6084L12.659 3.43582H12.4876Z" fill="black"/>
<path d="M18.2896 10.6014C17.3191 12.7794 16.7363 14.3065 16.7363 14.5784C16.7363 14.713 16.7785 14.8695 16.9525 14.8695C17.3613 14.8695 18.2263 14.0373 19.1309 12.9387L19.3261 13.1172C18.1182 14.5317 16.9525 15.9242 15.6814 15.9242C15.444 15.9242 15.1856 15.633 15.1856 15.3392C15.1856 14.6663 15.8106 13.1832 16.9314 10.6234C17.7305 8.78051 18.2685 7.50064 18.2685 7.14084C18.2685 6.87169 18.1393 6.60253 17.836 6.60253C16.8233 6.60253 14.9034 9.16227 13.4159 11.8126C12.6406 13.1831 11.9918 14.5976 11.6252 15.677H10.2459L15.982 1.99939C16.1112 1.70826 16.2616 1.27981 16.2616 0.944736C16.2616 0.428393 15.7869 0.293815 14.7952 0.271843L14.9034 0.00268555H18.2026L13.6744 10.4476H13.7403C14.8612 8.60473 17.0844 5.73189 18.7011 5.73189C19.2628 5.73189 19.7375 5.97907 19.7375 6.58605C19.7375 7.32761 19.2839 8.36029 18.2923 10.6069L18.2896 10.6014Z" fill="black"/>
<path d="M25.6635 9.88202C24.4556 10.6455 23.3559 11.2086 22.4065 11.6782C22.1058 12.4857 21.8447 13.5651 21.8447 14.1501C21.8447 14.7351 21.9739 15.364 22.686 15.364C23.7858 15.364 24.7352 14.3753 25.856 12.7576L26.0512 12.9142C24.9725 14.6225 23.7647 15.9243 22.2983 15.9243C21.0904 15.9243 20.3995 15.0262 20.3995 13.7683C20.3995 11.2525 23.5484 5.72656 26.3518 5.72656C27.3013 5.72656 27.7971 6.26488 27.7971 7.00643C27.7971 8.03912 27.0217 9.02786 25.6609 9.88202H25.6635ZM26.1804 6.01769C25.2099 6.01769 23.7858 8.03912 22.5146 11.2965C23.9387 10.5549 26.8292 8.57743 26.8292 6.87185C26.8292 6.33354 26.634 6.01769 26.183 6.01769H26.1804Z" fill="black"/>
<path d="M17.5775 21.3925L13.7614 33.565H13.5451L10.2037 22.9196H10.1615L6.42971 33.565H6.21345L1.76962 20.1346C1.3371 18.8081 0.994257 18.1352 0 17.9786V17.7534H4.87371V17.9786C3.73176 18.0226 3.25705 18.2258 3.25705 18.7422C3.25705 18.9207 3.34408 19.2146 3.40738 19.4398L6.98881 30.5356H7.03101L9.96367 22.2247L9.23051 19.9341C8.75579 18.473 8.36811 18.0253 7.20243 17.9786V17.7534H12.6379V17.9786C11.1715 18.0693 10.8472 18.4291 10.8472 19.102C10.8472 19.3052 10.9764 19.9094 11.1267 20.3598L14.2756 30.3104H14.3178L17.0131 21.9116C17.3797 20.7663 17.7041 19.5991 17.7041 18.9481C17.7041 18.2505 17.1872 18.05 15.9134 17.9814V17.7562H19.6663V17.9814C18.7168 18.2725 18.3951 18.7669 17.5749 21.3953L17.5775 21.3925Z" fill="black"/>
<path d="M26.6788 33.5676C20.9849 33.5676 19.5397 28.558 19.5397 25.773C19.5397 19.0111 24.6718 17.5527 26.7869 17.5527C30.3446 17.5527 34.2056 20.0905 34.2056 25.6824C34.2056 28.2641 32.8474 33.5648 26.6788 33.5648V33.5676ZM26.9373 17.8439C24.2631 17.8439 21.4596 20.291 21.4596 25.8609C21.4596 29.8131 23.4007 33.2737 26.6788 33.2737C30.495 33.2737 32.2857 29.0523 32.2857 25.6604C32.2857 19.9559 28.8994 17.8439 26.9373 17.8439Z" fill="black"/>
<path d="M41.0204 27.0311C40.2872 26.3335 39.1663 26.2236 38.1721 26.2236V31.615C38.1721 32.8509 38.776 33.0075 40.005 33.0075V33.2547H34.828V33.0075C35.9699 33.0075 36.4236 32.8509 36.4236 31.615V19.3958C36.4236 18.1819 35.8618 18.0033 34.915 18.0033V17.7562C36.7901 17.7562 38.5387 17.6655 40.4797 17.6655C43.0669 17.6655 45.7411 18.7202 45.7411 21.843C45.7411 24.1555 44.2088 25.3255 42.2678 25.9545C43.5179 26.8306 44.942 29.7501 46.0839 31.659C46.5798 32.4911 47.1837 32.9855 48.1542 33.0075V33.2547H44.8339C43.9293 31.615 42.3759 28.3137 41.0177 27.0338L41.0204 27.0311ZM39.9206 17.9786C38.7998 17.9786 38.1747 18.1819 38.1747 19.4617V25.8638C38.929 25.8638 39.5778 25.8419 40.2239 25.7952C42.5104 25.6166 43.8475 24.1995 43.8475 21.821C43.8475 19.4425 42.252 17.9814 39.9232 17.9814L39.9206 17.9786Z" fill="black"/>
<path d="M49.1301 33.2519V33.0267C50.2509 33.0267 50.8338 32.8482 50.8338 31.6123V19.3931C50.8338 18.1572 50.0136 17.9786 49.1723 17.9786V17.7534H54.6288V17.9786C53.2258 18.0006 52.5796 18.4291 52.5796 19.6183V31.0959C52.5796 32.9608 53.2258 33.0267 55.3198 33.0267C58.3817 33.0267 59.397 32.8482 60.5812 30.8927C61.164 29.9259 61.6387 29.1184 62.0264 28.3989H62.2216L61.0796 33.2492H49.1301V33.2519Z" fill="black"/>
<path d="M68.4956 33.3866C66.5546 33.3866 64.9142 33.252 63.018 33.252H62.7173V33.0268C63.6878 33.0268 64.2707 32.8235 64.2707 31.6123V19.3931C64.2707 18.1792 63.4505 18.0007 62.6751 17.9787V17.7535C64.8746 17.7315 66.7313 17.6189 68.9519 17.6189C75.6585 17.6189 77.7077 21.4365 77.7077 25.614C77.7077 29.7914 75.4 33.3866 68.4982 33.3866H68.4956ZM68.4297 17.91C66.813 17.91 66.0139 18.1352 66.0139 19.7529V31.096C66.0139 32.5324 66.7893 33.0487 68.8385 33.0735H68.9466C73.0871 33.0735 75.7191 30.1979 75.7191 25.8419C75.7191 20.7884 73.3034 17.9128 68.4297 17.9128V17.91Z" fill="black"/>
<path d="M84.6042 33.4992C82.8345 33.4992 82.2306 31.8376 82.2306 30.1759C82.2306 27.5942 84.6885 23.3042 87.6871 23.3042C89.3275 23.3042 89.9737 24.6747 89.9737 26.7181C89.9737 29.3465 87.6449 33.502 84.6042 33.502V33.4992ZM87.7531 23.5267C85.812 23.5267 83.2881 29.7255 83.2881 31.725C83.2881 32.4446 83.5255 33.274 84.3457 33.274C86.1997 33.274 88.9188 27.9046 88.9188 25.1663C88.9188 24.4687 88.7895 23.5267 87.7531 23.5267Z" fill="black"/>
<path d="M98.8798 19.1924C98.5343 19.1924 98.297 18.9672 98.1888 18.6541C98.0596 18.3163 97.8012 18.0251 97.4979 18.0251C96.6566 18.0251 96.1397 19.7087 95.9445 20.4283L95.0399 23.595H97.1761L97.0047 24.1114H94.9133L93.3811 29.3435C91.8488 34.5756 90.3614 38.0801 87.8375 38.0801C87.1043 38.0801 86.6718 37.6297 86.6718 37.138C86.6718 36.6464 87.0384 36.4404 87.339 36.4404C87.6634 36.4404 87.9008 36.6876 88.0722 37.16C88.1355 37.3385 88.3096 37.6104 88.6761 37.6104C89.4093 37.6104 90.0344 36.2619 90.6594 34.1279L93.5499 24.1114H91.738L91.9095 23.595H93.6791C93.8742 22.9661 94.0668 22.2932 94.3041 21.6176C95.0373 19.4616 96.137 17.5527 98.2943 17.5527C99.0486 17.5527 99.5655 17.9345 99.5655 18.4948C99.5655 18.8985 99.286 19.1924 98.8745 19.1924H98.8798Z" fill="black"/>
</g>
<defs>
<clipPath id="clip0_113_2267">
<rect width="114.382" height="110.346" fill="white"/>
</clipPath>
</defs>
</svg>
